{"title":"Promised Land 2012 BRRip XviD AC3-SANTi","uid":8407943,"size":1536145146,"categoryP":"video","categoryS":"hd___movies","magnet":"?xt=urn:btih:a6cca3b031a94c1455043048d0bd9f239603fdac&amp;dn=Promised+Land+2012+BRRip+XviD+AC3-SANTi&amp;tr=udp%3A%2F%2Ftracker.openbittorrent.com%3A80&amp;tr=udp%3A%2F%2Fopen.demonii.com%3A1337&amp;tr=udp%3A%2F%2Ftracker.coppersurfer.tk%3A6969&amp;tr=udp%3A%2F%2Fexodus.desync.com%3A6969","seeders":1,"leechers":0,"uploader":"R0thschild","files":3,"time":1366844393,"description":"--------------------------------------------\n &lt;a href=&quot;\nhttp://www.imdb.com/title/tt2091473/&quot; rel=&quot;nofollow&quot; target=&quot;_NEW&quot;&gt;\nhttp://www.imdb.com/title/tt2091473/&lt;/a&gt;\n\n106 min  -  Drama  -  4 January 2013 (USA)\n6,5 Your rating:    -/10   Ratings: 6,5/10 from 6 576 users   Metascore: 55/100 \n\nSUBTiTLES.......: Bulgarian\n\nLanguage : English\n\nFormat                           : AVI\nFormat/Info                      : Audio Video Interleave\nFile size                        : 1.43 GiB\nDuration                         : 1h 46mn\nOverall bit rate                 : 1 921 Kbps\nWriting application              : VirtualDubMod 1.5.10.3\nWriting library                  : VirtualDubMod build 2550/release\n\nVideo\nID                               : 0\nFormat                           : MPEG-4 Visual\nFormat profile                   : Advanced Simple@L5\nFormat settings, BVOP            : 3\nFormat settings, QPel            : No\nFormat settings, GMC             : No warppoints\nFormat settings, Matrix          : Default (MPEG)\nCodec ID                         : XVID\nCodec ID/Hint                    : XviD\nDuration                         : 1h 46mn\nBit rate                         : 1 528 Kbps\nWidth                            : 720 pixels\nHeight                           : 384 pixels\nDisplay aspect ratio             : 1.875\nFrame rate                       : 23.976 fps\nColor space                      : YUV\nChroma subsampling               : 4:2:0\nBit depth                        : 8 bits\nScan type                        : Progressive\nCompression mode                 : Lossy\nBits/(Pixel*Frame)               : 0.231\nStream size                      : 1.14 GiB (80%)\nWriting library                  : XviD 1.2.1 (UTC 2008-12-04)\n\nAudio\nID                               : 1\nFormat                           : AC-3\nFormat/Info                      : Audio Coding 3\nMode extension                   : CM (complete main)\nCodec ID                         : 2000\nDuration                         : 1h 46mn\nBit rate mode                    : Constant\nBit rate                         : 384 Kbps\nChannel(s)                       : 6 channels\nChannel positions                : Front: L C R, Side: L R, LFE\nSampling rate                    : 48.0 KHz\nBit depth                        : 16 bits\nCompression mode                 : Lossy\nStream size                      : 293 MiB (20%)\nAlignment                        : Split accross interleaves\nInterleave, duration             : 42 ms (1.00 video frame)\nInterleave, preload duration     : 500 ms\n\n--------------------------------------------\n\nMore at   &lt;a href=&quot;\nhttp://publichash.com/&quot; rel=&quot;nofollow&quot; target=&quot;_NEW&quot;&gt;\nhttp://publichash.com/&lt;/a&gt;\n\n--------------------------------------------","torrent":{"xt":"urn:btih:a6cca3b031a94c1455043048d0bd9f239603fdac","amp;dn":"Promised+Land+2012+BRRip+XviD+AC3-SANTi","amp;tr":["udp%3A%2F%2Ftracker.openbittorrent.com%3A80","udp%3A%2F%2Fopen.demonii.com%3A1337","udp%3A%2F%2Ftracker.coppersurfer.tk%3A6969","udp%3A%2F%2Fexodus.desync.com%3A6969"],"infoHash":"a6cca3b031a94c1455043048d0bd9f239603fdac","infoHashBuffer":{"type":"Buffer","data":[166,204,163,176,49,169,76,20,85,4,48,72,208,189,159,35,150,3,253,172]},"announce":[],"urlList":[]}}